# 3ds Max Wavefront OBJ Exporter v0.97b - (c)2007 guruware
# File Created: 05.04.2013 11:19:31

mtllib HSM0017.mtl

#
# object end_table__end_table_
#

v  -27.8958 -31.3429 0.1755
v  -31.5343 -31.3424 0.1829
v  -31.5348 -27.7039 0.1755
v  -27.9192 -27.6882 0.1602
v  -31.5343 -24.0881 43.7938
v  -31.5343 -31.3424 43.7938
v  -24.3149 -31.3728 43.7952
v  -24.2800 -24.0881 43.7938
v  -31.5838 -31.3919 2.8203
v  -31.5838 -26.5167 3.0931
v  -26.6620 -26.4701 3.3459
v  -26.7086 -31.3919 3.0931
v  -31.5838 -24.0736 24.5200
v  -31.5838 -31.3919 24.5130
v  -24.2650 -24.0731 24.5266
v  -24.2655 -31.3919 24.5200
v  -31.5838 -24.6636 16.6999
v  -31.5838 -31.3919 16.7845
v  -24.8630 -24.6711 16.6174
v  -24.8555 -31.3919 16.6999
v  -31.5838 -25.8280 7.4640
v  -31.5838 -31.3919 7.3227
v  -25.9951 -25.8032 7.5935
v  -26.0199 -31.3919 7.4640
v  -31.5343 31.4305 0.1829
v  -27.8958 31.4310 0.1755
v  -27.9393 27.7488 0.1635
v  -31.5603 27.7483 0.2190
v  -31.5343 24.1762 43.7938
v  -24.2800 24.1762 43.7938
v  -24.2800 31.4305 43.7938
v  -31.5600 31.4562 43.7481
v  -31.5266 26.5559 3.0987
v  -31.5838 31.4800 2.8203
v  -26.6620 26.5582 3.3459
v  -26.7086 31.4800 3.0931
v  -31.5838 31.4800 24.5130
v  -31.5838 24.1617 24.5200
v  -24.2650 24.1612 24.5266
v  -24.2655 31.4800 24.5200
v  -31.5838 24.7517 16.6999
v  -31.5838 31.4800 16.7845
v  -24.8630 24.7592 16.6174
v  -24.8555 31.4800 16.6999
v  -31.5838 25.9161 7.4640
v  -31.5838 31.4800 7.3228
v  -25.9951 25.8913 7.5935
v  -26.0199 31.4800 7.4640
v  -27.5009 -28.1851 43.7862
v  24.0764 -28.2296 43.8433
v  24.0764 -28.2296 33.3150
v  -27.5009 -28.2296 33.3150
v  24.0764 -30.5029 33.3150
v  24.0764 -30.5029 43.8433
v  -27.5009 -30.5029 43.8433
v  -27.5009 -30.5029 33.3150
v  30.6740 23.9931 33.3150
v  30.6740 23.9931 43.8433
v  30.6740 -23.9052 43.8433
v  30.6740 -23.9052 33.3150
v  28.4007 -23.9052 43.8433
v  28.4007 23.9932 43.8433
v  28.4007 23.9931 33.3150
v  28.4007 -23.9052 33.3150
v  24.0763 28.3169 33.3150
v  24.0763 28.3169 43.8433
v  -27.5009 28.3169 43.8433
v  -27.5009 28.3169 33.3150
v  -27.5009 30.5902 43.8433
v  24.0763 30.5902 43.8433
v  24.0763 30.5902 33.3150
v  -27.5009 30.5902 33.3150
v  -28.4177 23.9931 33.3150
v  -28.4177 23.9931 43.8433
v  -28.4177 -23.9052 43.8433
v  -28.4177 -23.9052 33.3150
v  -30.6910 -23.9052 43.8433
v  -30.6910 23.9931 43.8433
v  -30.6910 23.9931 33.3150
v  -30.6910 -23.9052 33.3150
v  31.5140 -27.7039 0.1755
v  31.5135 -31.3424 0.1829
v  27.8750 -31.3429 0.1755
v  27.8690 -27.6979 0.1696
v  24.2592 -31.3424 43.7938
v  31.5135 -31.3424 43.7938
v  31.5135 -24.0881 43.7938
v  24.2592 -24.0881 43.7938
v  31.5630 -31.3919 2.8203
v  31.5630 -26.5167 3.0931
v  26.6412 -26.4701 3.3459
v  26.6878 -31.3919 3.0931
v  31.5630 -31.3919 24.5130
v  31.5630 -24.0735 24.5200
v  24.2442 -24.0731 24.5266
v  24.2447 -31.3919 24.5200
v  31.5630 -31.3919 16.7845
v  31.5630 -24.6636 16.6999
v  24.8422 -24.6711 16.6174
v  24.8347 -31.3919 16.6999
v  31.5630 -31.3919 7.3228
v  31.5630 -25.8280 7.4641
v  25.9743 -25.8032 7.5935
v  25.9991 -31.3919 7.4641
v  31.5140 27.7920 0.1755
v  27.9185 27.7488 0.1635
v  27.8750 31.4310 0.1755
v  31.5135 31.4305 0.1829
v  31.4593 31.3763 43.8751
v  24.2592 31.4305 43.7938
v  24.2287 24.2111 43.7952
v  31.5135 24.1762 43.7938
v  31.5630 31.4800 2.8203
v  31.5630 26.6048 3.0931
v  26.6412 26.5582 3.3459
v  26.6878 31.4800 3.0931
v  31.5630 24.1617 24.5200
v  31.5630 31.4800 24.5130
v  24.2442 24.1612 24.5266
v  24.2447 31.4799 24.5200
v  31.5630 24.7517 16.6999
v  31.5630 31.4800 16.7845
v  24.8422 24.7592 16.6174
v  24.8347 31.4800 16.6999
v  31.5630 25.9161 7.4641
v  31.5630 31.4800 7.3228
v  25.9743 25.8913 7.5935
v  25.9991 31.4800 7.4641
v  32.8430 32.8521 43.7850
v  32.8430 -32.8521 43.7850
v  -32.8970 -32.8428 43.7710
v  -32.9106 32.8521 43.7850
v  -32.9021 -32.8430 45.6078
v  32.8430 -32.8521 45.5964
v  32.8430 32.8521 45.5964
v  -32.8970 32.8428 45.6104
# 136 vertices

vn -0.0020 -0.0042 -1.0000
vn -0.0031 -0.0031 -1.0000
vn -0.0042 -0.0020 -1.0000
vn 0.0000 -0.0000 1.0000
vn -0.0001 0.0001 1.0000
vn -0.0002 0.0002 1.0000
vn -1.0000 0.0002 -0.0093
vn -1.0000 0.0004 -0.0067
vn -0.9998 0.0006 -0.0177
vn -0.9998 -0.0002 -0.0188
vn 0.0002 0.9637 -0.2670
vn 0.0032 0.9713 -0.2379
vn 0.0040 0.9304 -0.3666
vn -0.0056 0.9262 -0.3770
vn 0.9626 0.0050 -0.2709
vn 0.9276 0.0082 -0.3736
vn 0.9296 0.0044 -0.3685
vn 0.9700 0.0021 -0.2431
vn 0.0005 -1.0000 -0.0097
vn 0.0006 -0.9998 -0.0181
vn -0.0002 -0.9999 -0.0167
vn 0.0001 -1.0000 -0.0068
vn -1.0000 -0.0000 0.0026
vn -1.0000 -0.0000 0.0013
vn 0.0000 1.0000 0.0008
vn 0.0000 0.9993 -0.0364
vn 0.0000 0.9993 -0.0374
vn 0.9993 0.0000 -0.0363
vn 1.0000 -0.0037 0.0022
vn 1.0000 -0.0048 0.0026
vn 0.9993 -0.0006 -0.0371
vn -0.0042 -1.0000 0.0010
vn -0.0032 -1.0000 0.0013
vn 0.0000 -1.0000 0.0013
vn -0.0005 -1.0000 0.0011
vn -1.0000 0.0000 0.0000
vn -0.0003 0.9951 -0.0987
vn -0.0001 0.9950 -0.1000
vn 0.9951 -0.0003 -0.0987
vn 0.9950 -0.0002 -0.1000
vn 0.0000 -1.0000 -0.0000
vn -0.0012 0.9904 -0.1381
vn -0.0011 0.9901 -0.1402
vn 0.9904 -0.0013 -0.1382
vn 0.9901 -0.0009 -0.1404
vn -0.0086 -0.0031 -1.0000
vn -0.0020 0.0033 -1.0000
vn -0.0087 -0.0032 -1.0000
vn -0.0153 -0.0097 -0.9998
vn 0.0000 0.0063 1.0000
vn -0.0031 0.0031 1.0000
vn -0.0063 -0.0000 1.0000
vn -1.0000 -0.0055 -0.0011
vn -1.0000 -0.0075 -0.0018
vn -1.0000 -0.0059 -0.0042
vn -0.9998 0.0069 -0.0189
vn 0.0096 -0.9304 -0.3664
vn 0.0091 -0.9723 -0.2336
vn 0.0068 -0.9648 -0.2629
vn -0.0057 -0.9239 -0.3825
vn 0.9626 -0.0050 -0.2709
vn 0.9695 -0.0032 -0.2450
vn 0.9267 -0.0097 -0.3756
vn 0.9264 -0.0102 -0.3763
vn 0.0005 1.0000 -0.0097
vn 0.0001 1.0000 -0.0068
vn -0.0002 0.9999 -0.0167
vn 0.0006 0.9998 -0.0181
vn -1.0000 -0.0035 0.0026
vn -1.0000 -0.0027 0.0023
vn -1.0000 -0.0000 0.0006
vn -1.0000 -0.0004 0.0008
vn 0.0000 -0.9993 -0.0364
vn 0.0000 -1.0000 0.0008
vn 0.0000 -0.9993 -0.0374
vn 0.9993 0.0000 -0.0374
vn 1.0000 -0.0000 0.0008
vn 0.9993 0.0000 -0.0364
vn 0.0000 1.0000 0.0006
vn 0.0027 1.0000 0.0023
vn 0.0035 1.0000 0.0026
vn 0.0004 1.0000 0.0008
vn -0.0001 -0.9951 -0.0985
vn -0.0003 -0.9950 -0.0998
vn 0.9951 0.0003 -0.0987
vn 0.9950 0.0001 -0.1000
vn 0.0000 1.0000 0.0000
vn -1.0000 -0.0002 -0.0059
vn -1.0000 -0.0033 -0.0031
vn 0.0012 -0.9905 -0.1375
vn -0.0010 -0.9904 -0.1383
vn 0.9904 0.0013 -0.1382
vn 0.9901 0.0009 -0.1404
vn 0.0009 1.0000 -0.0042
vn 0.0001 1.0000 -0.0005
vn 0.0008 1.0000 -0.0037
vn 0.0000 0.0000 -1.0000
vn 1.0000 0.0000 0.0000
vn 0.0000 0.0007 1.0000
vn -0.0011 0.0247 0.9997
vn -0.0011 0.0240 0.9997
vn 0.0016 -0.0020 -1.0000
vn 0.0018 -0.0018 -1.0000
vn 0.0020 -0.0016 -1.0000
vn 1.0000 0.0002 -0.0093
vn 0.9998 -0.0002 -0.0188
vn 0.9998 0.0006 -0.0177
vn 1.0000 0.0004 -0.0067
vn -0.0012 0.9634 -0.2679
vn 0.0021 0.9262 -0.3769
vn -0.0054 0.9295 -0.3687
vn -0.0033 0.9709 -0.2396
vn -0.9330 -0.0021 -0.3598
vn -0.9289 0.0057 -0.3702
vn -0.9626 0.0050 -0.2709
vn -0.9705 0.0007 -0.2410
vn 0.0002 -0.9999 -0.0167
vn -0.0006 -0.9998 -0.0181
vn -0.0005 -1.0000 -0.0097
vn -0.0001 -1.0000 -0.0068
vn 1.0000 -0.0000 0.0026
vn 1.0000 -0.0000 0.0013
vn 0.0000 0.9993 -0.0373
vn 0.0000 0.9993 -0.0363
vn -1.0000 -0.0000 0.0008
vn -0.9993 0.0000 -0.0364
vn -0.9993 0.0000 -0.0373
vn 0.0000 -1.0000 0.0026
vn 0.0003 0.9950 -0.0998
vn 0.0001 0.9951 -0.0986
vn -0.9951 -0.0001 -0.0986
vn -0.9950 -0.0003 -0.0998
vn 0.0013 0.9901 -0.1405
vn 0.0009 0.9904 -0.1383
vn -0.9904 -0.0011 -0.1385
vn -0.9901 -0.0011 -0.1406
vn 0.0033 0.0020 -1.0000
vn 0.0027 0.0027 -1.0000
vn 0.0020 0.0033 -1.0000
vn -0.0055 -0.0056 1.0000
vn -0.0113 0.0002 0.9999
vn -0.0056 -0.0055 1.0000
vn 0.0001 -0.0113 0.9999
vn 0.9998 -0.0006 -0.0177
vn 0.9998 0.0002 -0.0188
vn 1.0000 -0.0002 -0.0093
vn 1.0000 -0.0004 -0.0067
vn -0.0013 -0.9320 -0.3623
vn 0.0124 -0.9261 -0.3770
vn 0.0017 -0.9642 -0.2653
vn -0.0031 -0.9720 -0.2348
vn -0.9267 -0.0097 -0.3756
vn -0.9695 -0.0032 -0.2450
vn -0.9626 -0.0050 -0.2709
vn -0.9264 -0.0102 -0.3763
vn 0.0002 0.9999 -0.0167
vn -0.0001 1.0000 -0.0068
vn -0.0005 1.0000 -0.0097
vn -0.0006 0.9998 -0.0181
vn 1.0000 0.0075 0.0054
vn 1.0000 0.0058 0.0047
vn 1.0000 0.0008 0.0016
vn -0.0048 -1.0000 0.0026
vn -0.0005 -0.9993 -0.0362
vn -0.0037 -1.0000 0.0022
vn -1.0000 0.0042 -0.0008
vn -1.0000 0.0033 -0.0004
vn -0.9993 0.0005 -0.0366
vn 0.0075 1.0000 0.0054
vn 0.0008 1.0000 0.0016
vn 0.0000 1.0000 0.0013
vn 0.0058 1.0000 0.0047
vn 0.0003 -0.9951 -0.0987
vn 0.0001 -0.9950 -0.1000
vn -0.9950 0.0002 -0.1000
vn -0.9951 0.0003 -0.0987
vn 0.0012 -0.9904 -0.1381
vn 0.0011 -0.9901 -0.1402
vn -0.9901 0.0009 -0.1404
vn -0.9904 0.0013 -0.1382
vn 0.0001 0.0001 -1.0000
vn 0.0002 0.0002 -1.0000
vn 0.0002 -0.0000 1.0000
vn -0.0001 1.0000 0.0000
vn -0.0001 1.0000 0.0001
vn 0.0000 1.0000 0.0051
vn 0.0000 1.0000 0.0050
vn -1.0000 0.0001 0.0075
vn -1.0000 0.0001 0.0073
vn -1.0000 -0.0002 -0.0028
vn -1.0000 -0.0002 -0.0026
vn -0.0001 -1.0000 -0.0001
vn -0.0001 -1.0000 -0.0000
# 193 vertex normals

vt 0.8756 0.3077 0.0000
vt 0.8756 0.3280 0.0000
vt 0.8554 0.3280 0.0000
vt 0.8553 0.3079 0.0000
vt 0.9401 0.0478 0.0000
vt 0.8997 0.0478 0.0000
vt 0.8996 0.0077 0.0000
vt 0.9401 0.0075 0.0000
vt 0.4000 0.7384 0.0000
vt 0.4015 0.7655 0.0000
vt 0.3853 0.7589 0.0000
vt 0.3853 0.7387 0.0000
vt 0.6572 0.5265 0.0000
vt 0.6586 0.5540 0.0000
vt 0.6408 0.5470 0.0000
vt 0.6409 0.5268 0.0000
vt 0.6169 0.1898 0.0000
vt 0.6006 0.1895 0.0000
vt 0.6006 0.1691 0.0000
vt 0.6183 0.1623 0.0000
vt 0.6555 0.6733 0.0000
vt 0.6409 0.6730 0.0000
vt 0.6408 0.6528 0.0000
vt 0.6571 0.6462 0.0000
vt 0.6279 0.7387 0.0000
vt 0.6279 0.7790 0.0000
vt 0.5207 0.7791 0.0000
vt 0.5206 0.7384 0.0000
vt 0.8843 0.5268 0.0000
vt 0.8843 0.5673 0.0000
vt 0.7768 0.5673 0.0000
vt 0.7768 0.5265 0.0000
vt 0.7365 0.1489 0.0000
vt 0.8440 0.1490 0.0000
vt 0.8440 0.1896 0.0000
vt 0.7365 0.1898 0.0000
vt 0.8834 0.6328 0.0000
vt 0.8834 0.6730 0.0000
vt 0.7762 0.6733 0.0000
vt 0.7762 0.6326 0.0000
vt 0.4772 0.7758 0.0000
vt 0.4776 0.7384 0.0000
vt 0.7327 0.5640 0.0000
vt 0.7331 0.5265 0.0000
vt 0.6924 0.1522 0.0000
vt 0.6929 0.1898 0.0000
vt 0.7327 0.6358 0.0000
vt 0.7332 0.6733 0.0000
vt 0.4258 0.7694 0.0000
vt 0.4250 0.7384 0.0000
vt 0.6823 0.5577 0.0000
vt 0.6816 0.5265 0.0000
vt 0.6420 0.1586 0.0000
vt 0.6413 0.1898 0.0000
vt 0.6814 0.6423 0.0000
vt 0.6806 0.6733 0.0000
vt 0.9628 0.4053 0.0000
vt 0.9628 0.3851 0.0000
vt 0.9833 0.3853 0.0000
vt 0.9833 0.4055 0.0000
vt 0.4256 0.2632 0.0000
vt 0.3853 0.2632 0.0000
vt 0.3853 0.2229 0.0000
vt 0.4258 0.2228 0.0000
vt 0.3855 0.8641 0.0000
vt 0.4015 0.8574 0.0000
vt 0.3999 0.8848 0.0000
vt 0.3853 0.8845 0.0000
vt 0.6006 0.2224 0.0000
vt 0.6183 0.2153 0.0000
vt 0.6169 0.2424 0.0000
vt 0.6009 0.2426 0.0000
vt 0.4016 0.5796 0.0000
vt 0.4030 0.6070 0.0000
vt 0.3853 0.6004 0.0000
vt 0.3853 0.5799 0.0000
vt 0.6552 0.6856 0.0000
vt 0.6567 0.7127 0.0000
vt 0.6405 0.7061 0.0000
vt 0.6405 0.6858 0.0000
vt 0.6278 0.8442 0.0000
vt 0.6276 0.8847 0.0000
vt 0.5206 0.8848 0.0000
vt 0.5206 0.8441 0.0000
vt 0.7365 0.2019 0.0000
vt 0.8440 0.2020 0.0000
vt 0.8440 0.2425 0.0000
vt 0.7365 0.2427 0.0000
vt 0.5212 0.5796 0.0000
vt 0.6287 0.5799 0.0000
vt 0.6287 0.6203 0.0000
vt 0.5212 0.6204 0.0000
vt 0.7758 0.6856 0.0000
vt 0.8828 0.6857 0.0000
vt 0.8831 0.7262 0.0000
vt 0.7759 0.7263 0.0000
vt 0.4771 0.8474 0.0000
vt 0.4776 0.8848 0.0000
vt 0.6924 0.2052 0.0000
vt 0.6928 0.2427 0.0000
vt 0.4771 0.6171 0.0000
vt 0.4775 0.5796 0.0000
vt 0.7324 0.7230 0.0000
vt 0.7328 0.6856 0.0000
vt 0.4258 0.8539 0.0000
vt 0.4250 0.8848 0.0000
vt 0.6413 0.2427 0.0000
vt 0.6420 0.2116 0.0000
vt 0.4267 0.6108 0.0000
vt 0.4260 0.5796 0.0000
vt 0.6810 0.7165 0.0000
vt 0.6802 0.6856 0.0000
vt 0.0074 0.7630 0.0000
vt 0.2943 0.7627 0.0000
vt 0.2943 0.8212 0.0000
vt 0.0074 0.8212 0.0000
vt 0.0074 0.8920 0.0000
vt 0.0074 0.8334 0.0000
vt 0.2943 0.8334 0.0000
vt 0.2943 0.8920 0.0000
vt 0.6400 0.8039 0.0000
vt 0.6400 0.7913 0.0000
vt 0.9269 0.7913 0.0000
vt 0.9269 0.8039 0.0000
vt 0.8965 0.5392 0.0000
vt 0.8965 0.5265 0.0000
vt 0.9550 0.5265 0.0000
vt 0.9550 0.5392 0.0000
vt 0.6400 0.7513 0.0000
vt 0.6400 0.7387 0.0000
vt 0.9269 0.7384 0.0000
vt 0.9269 0.7513 0.0000
vt 0.9377 0.0782 0.0000
vt 0.9374 0.0911 0.0000
vt 0.8791 0.0909 0.0000
vt 0.8791 0.0782 0.0000
vt 0.0074 0.9627 0.0000
vt 0.0074 0.9041 0.0000
vt 0.2738 0.9041 0.0000
vt 0.2738 0.9627 0.0000
vt 0.6006 0.0782 0.0000
vt 0.8670 0.0782 0.0000
vt 0.8670 0.1368 0.0000
vt 0.6006 0.1368 0.0000
vt 0.9064 0.8815 0.0000
vt 0.6400 0.8815 0.0000
vt 0.6400 0.8689 0.0000
vt 0.9064 0.8689 0.0000
vt 0.8562 0.1489 0.0000
vt 0.9148 0.1489 0.0000
vt 0.9148 0.1616 0.0000
vt 0.8562 0.1616 0.0000
vt 0.9064 0.7761 0.0000
vt 0.6400 0.7761 0.0000
vt 0.6400 0.7634 0.0000
vt 0.9064 0.7634 0.0000
vt 0.9780 0.4684 0.0000
vt 0.9194 0.4684 0.0000
vt 0.9194 0.4558 0.0000
vt 0.9780 0.4558 0.0000
vt 0.3853 0.4437 0.0000
vt 0.3853 0.3851 0.0000
vt 0.6721 0.3851 0.0000
vt 0.6721 0.4437 0.0000
vt 0.6006 0.0075 0.0000
vt 0.8874 0.0075 0.0000
vt 0.8874 0.0661 0.0000
vt 0.6006 0.0661 0.0000
vt 0.9268 0.8568 0.0000
vt 0.6400 0.8568 0.0000
vt 0.6400 0.8441 0.0000
vt 0.9268 0.8441 0.0000
vt 0.3445 0.9167 0.0000
vt 0.2860 0.9167 0.0000
vt 0.2860 0.9041 0.0000
vt 0.3445 0.9041 0.0000
vt 0.6721 0.9765 0.0000
vt 0.3853 0.9765 0.0000
vt 0.3853 0.9639 0.0000
vt 0.6721 0.9639 0.0000
vt 0.8561 0.2019 0.0000
vt 0.9147 0.2019 0.0000
vt 0.9147 0.2145 0.0000
vt 0.8561 0.2145 0.0000
vt 0.6843 0.4437 0.0000
vt 0.6843 0.3851 0.0000
vt 0.9507 0.3851 0.0000
vt 0.9507 0.4437 0.0000
vt 0.3853 0.4558 0.0000
vt 0.6517 0.4558 0.0000
vt 0.6517 0.5144 0.0000
vt 0.3853 0.5144 0.0000
vt 0.9507 0.9765 0.0000
vt 0.6843 0.9765 0.0000
vt 0.6843 0.9639 0.0000
vt 0.9507 0.9639 0.0000
vt 0.8558 0.2549 0.0000
vt 0.9143 0.2549 0.0000
vt 0.9143 0.2675 0.0000
vt 0.8558 0.2675 0.0000
vt 0.6400 0.8161 0.0000
vt 0.9064 0.8161 0.0000
vt 0.9064 0.8287 0.0000
vt 0.6400 0.8287 0.0000
vt 0.9550 0.5922 0.0000
vt 0.8964 0.5922 0.0000
vt 0.8964 0.5796 0.0000
vt 0.9550 0.5796 0.0000
vt 0.9155 0.7058 0.0000
vt 0.8952 0.7058 0.0000
vt 0.8952 0.6856 0.0000
vt 0.9155 0.6856 0.0000
vt 0.3468 0.8737 0.0000
vt 0.3065 0.8737 0.0000
vt 0.3065 0.8334 0.0000
vt 0.3468 0.8334 0.0000
vt 0.6153 0.3484 0.0000
vt 0.6006 0.3482 0.0000
vt 0.6006 0.3279 0.0000
vt 0.6168 0.3213 0.0000
vt 0.6572 0.6204 0.0000
vt 0.6409 0.6201 0.0000
vt 0.6409 0.5998 0.0000
vt 0.6586 0.5930 0.0000
vt 0.3853 0.6532 0.0000
vt 0.3853 0.6328 0.0000
vt 0.4016 0.6326 0.0000
vt 0.4030 0.6600 0.0000
vt 0.3853 0.8118 0.0000
vt 0.3853 0.7915 0.0000
vt 0.4000 0.7913 0.0000
vt 0.4015 0.8184 0.0000
vt 0.8432 0.3482 0.0000
vt 0.7359 0.3484 0.0000
vt 0.7360 0.3077 0.0000
vt 0.8432 0.3078 0.0000
vt 0.8843 0.6201 0.0000
vt 0.7768 0.6204 0.0000
vt 0.7768 0.5796 0.0000
vt 0.8843 0.5797 0.0000
vt 0.6287 0.6733 0.0000
vt 0.5212 0.6734 0.0000
vt 0.5211 0.6326 0.0000
vt 0.6287 0.6328 0.0000
vt 0.6279 0.8319 0.0000
vt 0.5207 0.8320 0.0000
vt 0.5206 0.7913 0.0000
vt 0.6279 0.7915 0.0000
vt 0.6929 0.3484 0.0000
vt 0.6925 0.3110 0.0000
vt 0.7331 0.6204 0.0000
vt 0.7327 0.5829 0.0000
vt 0.4770 0.6701 0.0000
vt 0.4775 0.6326 0.0000
vt 0.4772 0.8287 0.0000
vt 0.4776 0.7913 0.0000
vt 0.6403 0.3484 0.0000
vt 0.6411 0.3175 0.0000
vt 0.6816 0.6204 0.0000
vt 0.6823 0.5892 0.0000
vt 0.4267 0.6638 0.0000
vt 0.4260 0.6326 0.0000
vt 0.4258 0.8222 0.0000
vt 0.4250 0.7913 0.0000
vt 0.9158 0.6326 0.0000
vt 0.9161 0.6526 0.0000
vt 0.8956 0.6528 0.0000
vt 0.8956 0.6326 0.0000
vt 0.3068 0.7630 0.0000
vt 0.3468 0.7627 0.0000
vt 0.3470 0.8028 0.0000
vt 0.3065 0.8030 0.0000
vt 0.3853 0.7061 0.0000
vt 0.3853 0.6858 0.0000
vt 0.4000 0.6856 0.0000
vt 0.4015 0.7127 0.0000
vt 0.3853 0.5468 0.0000
vt 0.3853 0.5268 0.0000
vt 0.4016 0.5265 0.0000
vt 0.4030 0.5540 0.0000
vt 0.6638 0.4758 0.0000
vt 0.6816 0.4692 0.0000
vt 0.6802 0.4966 0.0000
vt 0.6639 0.4964 0.0000
vt 0.6006 0.2751 0.0000
vt 0.6168 0.2685 0.0000
vt 0.6153 0.2956 0.0000
vt 0.6006 0.2953 0.0000
vt 0.6283 0.6861 0.0000
vt 0.6279 0.7262 0.0000
vt 0.5207 0.7263 0.0000
vt 0.5206 0.6856 0.0000
vt 0.6287 0.5674 0.0000
vt 0.5212 0.5673 0.0000
vt 0.5212 0.5265 0.0000
vt 0.6287 0.5268 0.0000
vt 0.9073 0.4561 0.0000
vt 0.9073 0.4964 0.0000
vt 0.7997 0.4966 0.0000
vt 0.7998 0.4558 0.0000
vt 0.8436 0.2950 0.0000
vt 0.7359 0.2956 0.0000
vt 0.7360 0.2549 0.0000
vt 0.8432 0.2550 0.0000
vt 0.4772 0.7230 0.0000
vt 0.4776 0.6856 0.0000
vt 0.4771 0.5640 0.0000
vt 0.4775 0.5265 0.0000
vt 0.7561 0.4966 0.0000
vt 0.7556 0.4591 0.0000
vt 0.6929 0.2956 0.0000
vt 0.6925 0.2582 0.0000
vt 0.4258 0.7165 0.0000
vt 0.4250 0.6856 0.0000
vt 0.4267 0.5577 0.0000
vt 0.4260 0.5265 0.0000
vt 0.7046 0.4966 0.0000
vt 0.7053 0.4655 0.0000
vt 0.6403 0.2956 0.0000
vt 0.6411 0.2646 0.0000
vt 0.0074 0.3729 0.0000
vt 0.0074 0.0075 0.0000
vt 0.3731 0.0076 0.0000
vt 0.3732 0.3729 0.0000
vt 0.3731 0.7505 0.0000
vt 0.0074 0.7505 0.0000
vt 0.0074 0.3851 0.0000
vt 0.3731 0.3851 0.0000
vt 0.7507 0.9416 0.0000
vt 0.7507 0.9517 0.0000
vt 0.3853 0.9517 0.0000
vt 0.3853 0.9416 0.0000
vt 0.7510 0.9194 0.0000
vt 0.7510 0.9295 0.0000
vt 0.3853 0.9295 0.0000
vt 0.3853 0.9193 0.0000
vt 0.3728 0.9748 0.0000
vt 0.3728 0.9850 0.0000
vt 0.0074 0.9850 0.0000
vt 0.0074 0.9748 0.0000
vt 0.7509 0.8970 0.0000
vt 0.7509 0.9072 0.0000
vt 0.3853 0.9071 0.0000
vt 0.3853 0.8970 0.0000
# 344 texture coords

g end_table__end_table_
usemtl _HSM0017_EndTableMaterial__88
s 2
f 1/1/1 2/2/2 3/3/3 4/4/2 
s 4
f 5/5/4 6/6/5 7/7/6 8/8/5 
s 8
f 9/9/7 10/10/8 3/11/9 2/12/10 
s 16
f 10/13/11 11/14/12 4/15/13 3/16/14 
s 32
f 12/17/15 1/18/16 4/19/17 11/20/18 
s 64
f 9/21/19 2/22/20 1/23/21 12/24/22 
s 8
f 6/25/23 5/26/23 13/27/24 14/28/24 
s 16
f 5/29/25 8/30/25 15/31/26 13/32/27 
s 32
f 15/33/28 8/34/29 7/35/30 16/36/31 
s 64
f 7/37/32 6/38/33 14/39/34 16/40/35 
s 8
f 17/41/36 18/42/36 14/28/24 13/27/24 
s 16
f 19/43/37 17/44/38 13/32/27 15/31/26 
s 32
f 19/45/39 15/33/28 16/36/31 20/46/40 
s 64
f 20/47/41 16/40/35 14/39/34 18/48/41 
s 8
f 21/49/36 22/50/36 18/42/36 17/41/36 
s 16
f 17/44/38 19/43/37 23/51/42 21/52/43 
s 32
f 23/53/44 19/45/39 20/46/40 24/54/45 
s 64
f 24/55/41 20/47/41 18/48/41 22/56/41 
s 8
f 22/50/36 21/49/36 10/10/8 9/9/7 
s 16
f 21/52/43 23/51/42 11/14/12 10/13/11 
s 32
f 24/54/45 12/17/15 11/20/18 23/53/44 
s 64
f 22/56/41 9/21/19 12/24/22 24/55/41 
s 2
f 25/57/46 26/58/47 27/59/48 28/60/49 
s 4
f 29/61/50 30/62/51 31/63/52 32/64/51 
s 8
f 28/65/53 33/66/54 34/67/55 25/68/56 
s 16
f 27/69/57 35/70/58 33/71/59 28/72/60 
s 32
f 36/73/61 35/74/62 27/75/63 26/76/64 
s 64
f 34/77/65 36/78/66 26/79/67 25/80/68 
s 8
f 29/81/69 32/82/70 37/83/71 38/84/72 
s 16
f 39/85/73 30/86/74 29/87/74 38/88/75 
s 32
f 40/89/76 31/90/77 30/91/77 39/92/78 
s 64
f 37/93/79 32/94/80 31/95/81 40/96/82 
s 8
f 41/97/36 38/84/72 37/83/71 42/98/36 
s 16
f 43/99/83 39/85/73 38/88/75 41/100/84 
s 32
f 43/101/85 44/102/86 40/89/76 39/92/78 
s 64
f 44/103/87 42/104/87 37/93/79 40/96/82 
s 8
f 45/105/88 41/97/36 42/98/36 46/106/89 
s 16
f 41/100/84 45/107/90 47/108/91 43/99/83 
s 32
f 47/109/92 48/110/93 44/102/86 43/101/85 
s 64
f 48/111/87 46/112/87 42/104/87 44/103/87 
s 8
f 33/66/54 45/105/88 46/106/89 34/67/55 
s 16
f 35/70/58 47/108/91 45/107/90 33/71/59 
s 32
f 48/110/93 47/109/92 35/74/62 36/73/61 
s 64
f 46/112/87 48/111/87 36/78/66 34/77/65 
s 2
f 49/113/94 50/114/95 51/115/87 52/116/96 
s 4
f 53/117/41 54/118/41 55/119/41 56/120/41 
s 8
f 51/121/97 53/122/97 56/123/97 52/124/97 
s 16
f 53/125/98 51/126/98 50/127/98 54/128/98 
s 32
f 54/129/4 50/130/99 49/131/100 55/132/101 
s 64
f 55/133/36 49/134/36 52/135/36 56/136/36 
s 2
f 57/137/98 58/138/98 59/139/98 60/140/98 
s 4
f 61/141/36 62/142/36 63/143/36 64/144/36 
s 8
f 64/145/97 63/146/97 57/147/97 60/148/97 
s 16
f 63/149/87 62/150/87 58/151/87 57/152/87 
s 32
f 62/153/4 61/154/4 59/155/4 58/156/4 
s 64
f 61/157/41 64/158/41 60/159/41 59/160/41 
s 2
f 65/161/41 66/162/41 67/163/41 68/164/41 
s 4
f 69/165/87 70/166/87 71/167/87 72/168/87 
s 8
f 72/169/97 71/170/97 65/171/97 68/172/97 
s 16
f 66/173/98 65/174/98 71/175/98 70/176/98 
s 32
f 67/177/4 66/178/4 70/179/4 69/180/4 
s 64
f 68/181/36 67/182/36 69/183/36 72/184/36 
s 2
f 73/185/98 74/186/98 75/187/98 76/188/98 
s 4
f 77/189/36 78/190/36 79/191/36 80/192/36 
s 8
f 80/193/97 79/194/97 73/195/97 76/196/97 
s 16
f 79/197/87 78/198/87 74/199/87 73/200/87 
s 32
f 75/201/4 74/202/4 78/203/4 77/204/4 
s 64
f 77/205/41 80/206/41 76/207/41 75/208/41 
s 2
f 81/209/102 82/210/103 83/211/104 84/212/103 
s 4
f 85/213/4 86/214/4 87/215/4 88/216/4 
s 8
f 89/217/105 82/218/106 81/219/107 90/220/108 
s 16
f 90/221/109 81/222/110 84/223/111 91/224/112 
s 32
f 84/225/113 83/226/114 92/227/115 91/228/116 
s 64
f 83/229/117 82/230/118 89/231/119 92/232/120 
s 8
f 86/233/121 93/234/122 94/235/122 87/236/121 
s 16
f 87/237/25 94/238/123 95/239/124 88/240/25 
s 32
f 88/241/125 95/242/126 96/243/127 85/244/125 
s 64
f 85/245/128 96/246/34 93/247/34 86/248/128 
s 8
f 93/234/122 97/249/98 98/250/98 94/235/122 
s 16
f 94/238/123 98/251/129 99/252/130 95/239/124 
s 32
f 99/253/131 100/254/132 96/243/127 95/242/126 
s 64
f 93/247/34 96/246/34 100/255/41 97/256/41 
s 8
f 97/249/98 101/257/98 102/258/98 98/250/98 
s 16
f 98/251/129 102/259/133 103/260/134 99/252/130 
s 32
f 100/254/132 99/253/131 103/261/135 104/262/136 
s 64
f 104/263/41 101/264/41 97/256/41 100/255/41 
s 8
f 101/257/98 89/217/105 90/220/108 102/258/98 
s 16
f 102/259/133 90/221/109 91/224/112 103/260/134 
s 32
f 91/228/116 92/227/115 104/262/136 103/261/135 
s 64
f 92/232/120 89/231/119 101/264/41 104/263/41 
s 2
f 105/265/137 106/266/138 107/267/139 108/268/138 
s 4
f 109/269/140 110/270/141 111/271/142 112/272/143 
s 8
f 105/273/144 108/274/145 113/275/146 114/276/147 
s 16
f 106/277/148 105/278/149 114/279/150 115/280/151 
s 32
f 106/281/152 115/282/153 116/283/154 107/284/155 
s 64
f 107/285/156 116/286/157 113/287/158 108/288/159 
s 8
f 109/289/160 112/290/161 117/291/122 118/292/162 
s 16
f 111/293/163 119/294/164 117/295/75 112/296/165 
s 32
f 111/297/166 110/298/167 120/299/127 119/300/168 
s 64
f 109/301/169 118/302/170 120/303/171 110/304/172 
s 8
f 121/305/98 122/306/98 118/292/162 117/291/122 
s 16
f 117/295/75 119/294/164 123/307/173 121/308/174 
s 32
f 120/299/127 124/309/175 123/310/176 119/300/168 
s 64
f 118/302/170 122/311/87 124/312/87 120/303/171 
s 8
f 122/306/98 121/305/98 125/313/98 126/314/98 
s 16
f 127/315/177 125/316/178 121/308/174 123/307/173 
s 32
f 124/309/175 128/317/179 127/318/180 123/310/176 
s 64
f 122/311/87 126/319/87 128/320/87 124/312/87 
s 8
f 114/276/147 113/275/146 126/314/98 125/313/98 
s 16
f 115/280/151 114/279/150 125/316/178 127/315/177 
s 32
f 115/282/153 127/318/180 128/317/179 116/283/154 
s 64
f 116/286/157 128/320/87 126/319/87 113/287/158 
s 2
f 129/321/97 130/322/181 131/323/182 132/324/181 
s 4
f 133/325/183 134/326/183 135/327/183 136/328/183 
s 8
f 134/329/98 130/330/98 129/331/98 135/332/98 
s 16
f 135/333/184 129/334/185 132/335/186 136/336/187 
s 32
f 136/337/188 132/338/189 131/339/190 133/340/191 
s 64
f 133/341/192 131/342/192 130/343/193 134/344/193 
# 118 polygons

